# File created by Blade
# Date/Time:  Tue Jan 27 19:32:46 2015
#---------------------------------------------------------
:version 1.10
:name HOM
:units
  mass 1.0
  length 1.000000
  angle deg
:documentation
     Acclaim Skeleton File
:root
   axis xyz
   order TX TY TZ RX RY RZ
   position 0.000000 0.000000 0.000000
   orientation 0 0 0
:bonedata
   begin
      id 1
      name Spine_dum
      direction 0.000000 1.000000 0.000000
      length 6.116652
      axis 0.0 0.0 0.0 xyz
   end
   begin
      id 2
      name LeftUpLeg_dum
      direction 1.000000 0.000000 0.000000
      length 4.711765
      axis 0.0 0.0 0.0 xyz
   end
   begin
      id 3
      name RightUpLeg_dum
      direction -1.000000 0.000000 0.000000
      length 4.711765
      axis 0.0 0.0 0.0 xyz
   end
   begin
      id 4
      name Spine
      direction 0.000000 1.000000 0.000000
      length 0.000000
      axis 0.0 0.0 0.0 xyz
      dof rx ry rz
   end
   begin
      id 5
      name Spine_dum1
      direction 0.000000 1.000000 0.000000
      length 15.225563
      axis 0.0 0.0 0.0 xyz
   end
   begin
      id 6
      name Spine_dum2
      direction 0.000000 1.000000 0.000000
      length 8.977654
      axis 0.0 0.0 0.0 xyz
   end
   begin
      id 7
      name Spine_dum3
      direction 0.000000 1.000000 0.000000
      length 8.977654
      axis 0.0 0.0 0.0 xyz
   end
   begin
      id 8
      name Head
      direction 0.000000 1.000000 0.000000
      length 4.527550
      axis 0.0 0.0 0.0 xyz
      dof rx ry rz
   end
   begin
      id 9
      name LeftShoulder
      direction 1.000000 0.000000 0.000000
      length 7.110130
      axis 0.0 0.0 -90.0 xyz
      dof rx ry rz
   end
   begin
      id 10
      name LeftArm
      direction 1.000000 0.000000 0.000000
      length 10.398341
      axis 0.0 0.0 -90.0 xyz
      dof rx ry rz
   end
   begin
      id 11
      name LeftForeArm
      direction 1.000000 0.000000 0.000000
      length 8.888997
      axis 0.0 0.0 -90.0 xyz
      dof ry rz rx
   end
   begin
      id 12
      name LeftHand
      direction 0.000000 0.000000 0.000000
      length 0.000000
      axis 0.0 0.0 -90.0 xyz
      dof rx ry rz
   end
   begin
      id 13
      name LeftHand_dum1
      direction 0.000000 0.000000 0.000000
      length 0.000000
      axis 0.0 0.0 -90.0 xyz
   end
   begin
      id 14
      name LeftHand_dum2
      direction 1.000000 0.000000 0.000000
      length 3.937000
      axis 0.0 0.0 -90.0 xyz
   end
   begin
      id 15
      name LeftHandThumb1
      direction 0.000000 0.000000 1.000000
      length 3.937000
      axis 0.0 0.0 -90.0 xyz
      dof rx rz ry
   end
   begin
      id 16
      name RightShoulder
      direction -1.000000 0.000000 0.000000
      length 7.110130
      axis 0.0 0.0 90.0 xyz
      dof rx ry rz
   end
   begin
      id 17
      name RightArm
      direction -1.000000 0.000000 0.000000
      length 10.398341
      axis 0.0 0.0 90.0 xyz
      dof rx ry rz
   end
   begin
      id 18
      name RightForeArm
      direction -1.000000 0.000000 0.000000
      length 8.888997
      axis 0.0 0.0 90.0 xyz
      dof ry rz rx
   end
   begin
      id 19
      name RightHand
      direction 0.000000 0.000000 0.000000
      length 0.000000
      axis 0.0 0.0 90.0 xyz
      dof rx ry rz
   end
   begin
      id 20
      name RightHand_dum1
      direction 0.000000 0.000000 0.000000
      length 0.000000
      axis 0.0 0.0 90.0 xyz
   end
   begin
      id 21
      name RightHand_dum2
      direction -1.000000 0.000000 0.000000
      length 3.937000
      axis 0.0 0.0 90.0 xyz
   end
   begin
      id 22
      name RightHandThumb1
      direction 0.000000 0.000000 1.000000
      length 3.937000
      axis 0.0 0.0 90.0 xyz
      dof rx rz ry
   end
   begin
      id 23
      name LeftUpLeg
      direction 0.000000 -1.000000 0.000000
      length 15.510451
      axis 0.0 0.0 0.0 xyz
      dof rx ry rz
   end
   begin
      id 24
      name LeftLeg
      direction 0.000000 -1.000000 0.000000
      length 14.858061
      axis 0.0 0.0 0.0 xyz
      dof rx ry rz
   end
   begin
      id 25
      name LeftFoot
      direction 0.000000 -0.258819 0.965926
      length 5.128852
      axis 15.0 0.0 0.0 xyz
      dof rx ry rz
   end
   begin
      id 26
      name LeftToeBase
      direction 0.000000 0.000000 1.000000
      length 2.952750
      axis 0.0 0.0 0.0 xyz
      dof rx ry rz
   end
   begin
      id 27
      name RightUpLeg
      direction 0.000000 -1.000000 0.000000
      length 15.510451
      axis 0.0 0.0 0.0 xyz
      dof rx ry rz
   end
   begin
      id 28
      name RightLeg
      direction 0.000000 -1.000000 0.000000
      length 14.858061
      axis 0.0 0.0 0.0 xyz
      dof rx ry rz
   end
   begin
      id 29
      name RightFoot
      direction 0.000000 -0.258819 0.965926
      length 5.128852
      axis 15.0 0.0 0.0 xyz
      dof rx ry rz
   end
   begin
      id 30
      name RightToeBase
      direction 0.000000 0.000000 1.000000
      length 2.952750
      axis 0.0 0.0 0.0 xyz
      dof rx ry rz
   end
:hierarchy
   begin
      root Spine_dum LeftUpLeg_dum RightUpLeg_dum
      Spine_dum Spine
      LeftUpLeg_dum LeftUpLeg
      RightUpLeg_dum RightUpLeg
      Spine Spine_dum1 Spine_dum2 Spine_dum3
      Spine_dum1 Head
      Spine_dum2 LeftShoulder
      Spine_dum3 RightShoulder
      LeftShoulder LeftArm
      LeftArm LeftForeArm
      LeftForeArm LeftHand
      LeftHand LeftHand_dum1 LeftHand_dum2
      LeftHand_dum1 LeftHandThumb1
      RightShoulder RightArm
      RightArm RightForeArm
      RightForeArm RightHand
      RightHand RightHand_dum1 RightHand_dum2
      RightHand_dum1 RightHandThumb1
      LeftUpLeg LeftLeg
      LeftLeg LeftFoot
      LeftFoot LeftToeBase
      RightUpLeg RightLeg
      RightLeg RightFoot
      RightFoot RightToeBase
   end

# File created by Blade
# Date/Time:  Tue Jan 27 19:32:37 2015
# Frame Rate: 120.000 fps
#------------------------------------------------------
:FULLY-SPECIFIED
:DEGREES
1043
root 3.846611 32.226172 -0.498059 -6.890307 2.515334 0.248189
Spine 2.092709 17.838704 -1.220424
Head 10.157241 -25.588279 1.614960
LeftShoulder -0.638915 -9.300319 24.735822
LeftArm 0.030027 44.047662 -100.629166
LeftForeArm 2.539491 0.000000 9.660871
LeftHand 10.087915 -0.000000 -4.651923
LeftHandThumb1 -26.253704 0.000000 33.147579
RightShoulder -2.437374 8.656773 -29.820638
RightArm 45.108523 2.726270 104.008472
RightForeArm 4.365263 -0.000000 20.126915
RightHand 26.006156 -0.000000 -14.149676
RightHandThumb1 -24.326973 -0.000000 -32.862282
LeftUpLeg 12.388623 0.277139 -1.926815
LeftLeg 2.845930 -0.000000 -0.000000
LeftFoot -20.746332 17.545161 -22.689038
LeftToeBase 16.617218 -0.000000 -0.000000
RightUpLeg 12.059032 -11.274461 0.065786
RightLeg 0.713726 -0.000000 -0.000000
RightFoot -13.294877 -13.188450 14.000632
RightToeBase 11.146992 -0.000000 -0.000000
1044
root 3.849887 32.225453 -0.495063 -6.916714 2.452964 0.246351
Spine 2.127261 17.843086 -1.166911
Head 10.235990 -25.492129 1.577106
LeftShoulder -0.642879 -9.291596 24.747771
LeftArm -0.015212 44.049461 -100.661412
LeftForeArm 2.540437 0.000000 9.556057
LeftHand 10.095080 -0.000000 -4.838704
LeftHandThumb1 -26.253704 0.000000 33.147579
RightShoulder -2.363955 8.684058 -29.777006
RightArm 45.008207 2.795916 104.212014
RightForeArm 4.547121 -0.000000 20.136635
RightHand 25.954502 -0.000000 -14.333304
RightHandThumb1 -24.326973 -0.000000 -32.862282
LeftUpLeg 12.422005 0.304793 -1.932292
LeftLeg 2.859463 -0.000000 -0.000000
LeftFoot -20.772497 17.574124 -22.697136
LeftToeBase 16.650425 -0.000000 -0.000000
RightUpLeg 12.077635 -11.249022 0.055298
RightLeg 0.726898 -0.000000 -0.000000
RightFoot -13.305069 -13.133622 14.028614
RightToeBase 11.168022 -0.000000 -0.000000
1045
root 3.853597 32.225037 -0.492254 -6.928301 2.386244 0.252389
Spine 2.139529 17.855403 -1.133667
Head 10.313646 -25.402633 1.568185
LeftShoulder -0.668852 -9.284066 24.764899
LeftArm -0.053024 44.067097 -100.683875
LeftForeArm 2.599688 0.000000 9.462580
LeftHand 10.096052 -0.000000 -5.041318
LeftHandThumb1 -26.253704 0.000000 33.147579
RightShoulder -2.264876 8.719968 -29.754356
RightArm 44.881594 2.912324 104.427667
RightForeArm 4.763658 0.000000 20.245232
RightHand 25.978160 -0.000000 -14.555986
RightHandThumb1 -24.326973 -0.000000 -32.862282
LeftUpLeg 12.438430 0.332334 -1.942432
LeftLeg 2.881230 -0.000000 -0.000000
LeftFoot -20.811789 17.576530 -22.744787
LeftToeBase 16.557802 -0.000000 -0.000000
RightUpLeg 12.091735 -11.233202 0.035241
RightLeg 0.718859 -0.000000 -0.000000
RightFoot -13.290110 -13.069619 14.025325
RightToeBase 11.169952 -0.000000 -0.000000
1046
root 3.853778 32.224641 -0.490013 -6.935831 2.331359 0.236821
Spine 2.148466 17.882583 -1.089463
Head 10.365764 -25.369849 1.579752
LeftShoulder -0.682812 -9.279044 24.793968
LeftArm -0.063418 44.082813 -100.698188
LeftForeArm 2.469366 -0.000000 9.343964
LeftHand 10.097521 -0.000000 -5.833586
LeftHandThumb1 -26.253704 0.000000 33.147579
RightShoulder -2.177387 8.717531 -29.750712
RightArm 44.783402 3.010561 104.576284
RightForeArm 4.867872 -0.000000 20.433734
RightHand 25.970043 0.000000 -14.679822
RightHandThumb1 -24.326973 -0.000000 -32.862282
LeftUpLeg 12.464601 0.415114 -1.911413
LeftLeg 2.864452 -0.000000 -0.000000
LeftFoot -20.816054 17.522850 -22.755102
LeftToeBase 16.621749 -0.000000 -0.000000
RightUpLeg 12.099119 -11.232146 0.046590
RightLeg 0.709766 -0.000000 -0.000000
RightFoot -13.266294 -13.038034 14.000472
RightToeBase 11.174198 -0.000000 -0.000000
1047
root 3.853134 32.223806 -0.491503 -6.917702 2.282268 0.218697
Spine 2.135186 17.933871 -1.053485
Head 10.403880 -25.373281 1.613957
LeftShoulder -0.672742 -9.282279 24.815691
LeftArm -0.052869 44.094214 -100.698068
LeftForeArm 2.520329 0.000000 9.218071
LeftHand 10.076361 -0.000000 -5.813471
LeftHandThumb1 -26.253704 0.000000 33.147579
RightShoulder -2.134493 8.786024 -29.740170
RightArm 44.662325 3.038889 104.579983
RightForeArm 4.877406 -0.000000 20.596350
RightHand 25.957347 0.000000 -14.797931
RightHandThumb1 -24.326973 -0.000000 -32.862282
LeftUpLeg 12.458787 0.504963 -1.878112
LeftLeg 2.841261 -0.000000 -0.000000
LeftFoot -20.798391 17.505861 -22.706695
LeftToeBase 16.597518 -0.000000 -0.000000
RightUpLeg 12.074338 -11.208775 0.073192
RightLeg 0.703679 -0.000000 -0.000000
RightFoot -13.245874 -13.020308 13.991024
RightToeBase 11.180480 -0.000000 -0.000000
1048
root 3.854740 32.223995 -0.493107 -6.883770 2.232120 0.218856
Spine 2.097665 17.969141 -1.044802
Head 10.443511 -25.362696 1.654168
LeftShoulder -0.684041 -9.283894 24.829915
LeftArm -0.054432 44.085589 -100.696006
LeftForeArm 2.585301 -0.000000 9.085272
LeftHand 10.150213 -0.000000 -5.827425
LeftHandThumb1 -26.253704 0.000000 33.147579
RightShoulder -2.057277 8.660987 -29.727956
RightArm 44.758697 2.994576 104.524052
RightForeArm 4.838115 0.000000 20.770501
RightHand 25.929288 -0.000000 -14.828811
RightHandThumb1 -24.326973 -0.000000 -32.862282
LeftUpLeg 12.433358 0.493339 -1.890949
LeftLeg 2.829050 -0.000000 -0.000000
LeftFoot -20.819111 17.557151 -22.728816
LeftToeBase 16.591843 -0.000000 -0.000000
RightUpLeg 12.039443 -11.187694 0.078054
RightLeg 0.682401 -0.000000 -0.000000
RightFoot -13.222312 -13.004645 13.966927
RightToeBase 11.207213 -0.000000 -0.000000
1049
root 3.855134 32.224502 -0.494158 -6.853286 2.190668 0.209626
Spine 2.067440 17.989288 -1.030598
Head 10.451877 -25.335013 1.718732
LeftShoulder -0.717472 -9.281005 24.847841
LeftArm -0.034556 44.091845 -100.672583
LeftForeArm 2.568309 -0.000000 8.949656
LeftHand 10.194759 -0.000000 -5.840334
LeftHandThumb1 -26.253704 0.000000 33.147579
RightShoulder -2.022551 8.648819 -29.697887
RightArm 44.816855 2.912394 104.383771
RightForeArm 4.585834 -0.000000 20.889009
RightHand 25.905148 -0.000000 -14.746132
RightHandThumb1 -24.326973 -0.000000 -32.862282
LeftUpLeg 12.412120 0.490714 -1.888005
LeftLeg 2.816734 -0.000000 -0.000000
LeftFoot -20.833707 17.591281 -22.748931
LeftToeBase 16.569140 -0.000000 -0.000000
RightUpLeg 12.003499 -11.178767 0.093921
RightLeg 0.677032 -0.000000 -0.000000
RightFoot -13.202251 -12.986978 13.942480
RightToeBase 11.261827 -0.000000 -0.000000
1050
root 3.854603 32.224475 -0.494746 -6.827063 2.151450 0.200652
Spine 2.034859 18.022569 -1.020419
Head 10.470567 -25.343219 1.772854
LeftShoulder -0.746463 -9.259944 24.862547
LeftArm 0.022635 44.071164 -100.623250
LeftForeArm 2.763919 -0.000000 8.807032
LeftHand 10.123692 -0.000000 -4.933803
LeftHandThumb1 -26.253704 0.000000 33.147579
RightShoulder -2.007783 8.643730 -29.673351
RightArm 44.896577 2.846271 104.252588
RightForeArm 4.310398 -0.000000 20.965417
RightHand 25.877708 -0.000000 -14.714948
RightHandThumb1 -24.326973 -0.000000 -32.862282
LeftUpLeg 12.398861 0.475082 -1.886978
LeftLeg 2.798107 -0.000000 -0.000000
LeftFoot -20.842809 17.646842 -22.756479
LeftToeBase 16.569629 -0.000000 -0.000000
RightUpLeg 11.983218 -11.141365 0.115367
RightLeg 0.650487 -0.000000 -0.000000
RightFoot -13.188010 -12.994110 13.945796
RightToeBase 11.239651 -0.000000 -0.000000
1051
root 3.855718 32.224655 -0.495747 -6.794770 2.120437 0.195550
Spine 2.005019 18.079525 -1.012919
Head 10.461680 -25.370408 1.835203
LeftShoulder -0.730905 -9.290841 24.876491
LeftArm 0.006327 44.018335 -100.618379
LeftForeArm 2.763202 -0.000000 8.724645
LeftHand 10.041356 -0.000000 -5.000774
LeftHandThumb1 -26.253704 0.000000 33.147579
RightShoulder -2.049195 8.659700 -29.654568
RightArm 44.949358 2.785918 104.109223
RightForeArm 4.056042 -0.000000 21.056923
RightHand 25.894343 -0.000000 -14.488310
RightHandThumb1 -24.326973 -0.000000 -32.862282
LeftUpLeg 12.375721 0.473792 -1.889269
LeftLeg 2.784511 -0.000000 -0.000000
LeftFoot -20.860263 17.683418 -22.751287
LeftToeBase 16.572081 -0.000000 -0.000000
RightUpLeg 11.949083 -11.135836 0.125049
RightLeg 0.637624 -0.000000 -0.000000
RightFoot -13.151686 -12.990909 13.921730
RightToeBase 11.151686 -0.000000 -0.000000
1052
root 3.855976 32.224233 -0.495811 -6.767496 2.097771 0.188202
Spine 1.971035 18.097171 -1.006952
Head 10.453473 -25.360370 1.892771
LeftShoulder -0.743657 -9.269116 24.901170
LeftArm 0.043293 43.950951 -100.582403
LeftForeArm 2.783218 -0.000000 8.631508
LeftHand 10.019895 -0.000000 -4.993592
LeftHandThumb1 -26.253704 0.000000 33.147579
RightShoulder -2.056321 8.730776 -29.640936
RightArm 45.009018 2.756200 104.021916
RightForeArm 4.055892 0.000000 21.100159
RightHand 25.876390 0.000000 -14.790651
RightHandThumb1 -24.326973 -0.000000 -32.862282
LeftUpLeg 12.356675 0.457536 -1.890491
LeftLeg 2.773920 -0.000000 -0.000000
LeftFoot -20.884398 17.714645 -22.780150
LeftToeBase 16.581824 -0.000000 -0.000000
RightUpLeg 11.929992 -11.129494 0.136905
RightLeg 0.614292 -0.000000 -0.000000
RightFoot -13.144254 -12.969158 13.945062
RightToeBase 11.242738 -0.000000 -0.000000
1053
root 3.856411 32.224670 -0.497006 -6.741629 2.080792 0.180754
Spine 1.943444 18.129514 -0.998127
Head 10.459241 -25.379739 1.931608
LeftShoulder -0.732252 -9.259468 24.909777
LeftArm 0.079298 43.848787 -100.526747
LeftForeArm 2.878312 0.000000 8.551009
LeftHand 10.017862 0.000000 -4.762971
LeftHandThumb1 -26.253704 0.000000 33.147579
RightShoulder -2.069271 8.778301 -29.619872
RightArm 45.062321 2.797893 103.988195
RightForeArm 4.164780 0.000000 21.206943
RightHand 25.854080 -0.000000 -14.840047
RightHandThumb1 -24.326973 -0.000000 -32.862282
LeftUpLeg 12.336981 0.437000 -1.889439
LeftLeg 2.762448 -0.000000 -0.000000
LeftFoot -20.880731 17.740399 -22.778345
LeftToeBase 16.536773 -0.000000 -0.000000
RightUpLeg 11.907158 -11.116100 0.151895
RightLeg 0.594449 -0.000000 -0.000000
RightFoot -13.126529 -12.981171 13.916765
RightToeBase 11.255258 -0.000000 -0.000000
